<svg width="90" height="55" viewBox="0 0 90 55" fill="none" xmlns="http://www.w3.org/2000/svg">
<path d="M87.6001 29.254C88.9565 30.2498 89.6347 31.4259 89.6347 32.7823C89.6347 34.1387 89.1024 35.2289 88.0379 36.0531C86.9734 36.8772 85.6342 37.2893 84.0203 37.2893C82.9729 37.2893 82.0973 37.0317 81.3934 36.5167C80.7066 35.9844 80.3632 35.332 80.3632 34.5593C80.3632 33.7867 80.6207 33.1772 81.1358 32.7308C81.6509 32.2672 82.2947 31.9839 83.0674 31.8809C82.7068 32.396 82.5265 32.8939 82.5265 33.3746C82.5265 33.8382 82.6896 34.216 83.0159 34.5078C83.3421 34.7997 83.7541 34.9456 84.2521 34.9456C84.75 34.9456 85.162 34.7654 85.4883 34.4048C85.8145 34.0271 85.9776 33.5978 85.9776 33.1171C85.9776 32.3273 85.6084 31.6234 84.8702 31.0053C84.4238 30.6447 83.943 30.3099 83.4279 30.0009C82.9129 29.6746 82.6381 29.5029 82.6038 29.4858C82.5351 29.4343 82.4664 29.3913 82.3978 29.357C82.0887 29.7176 81.6423 30.2155 81.0586 30.8507C80.4748 31.4688 80.0112 31.9668 79.6678 32.3445C78.7063 33.3918 78.1655 34.2675 78.0453 34.9714C78.011 35.1088 77.9938 35.3749 77.9938 35.7698C77.9938 36.1475 78.1054 36.5424 78.3286 36.9545C78.569 37.3665 78.8523 37.6756 79.1785 37.8816C79.5047 38.0877 79.8224 38.2508 80.1314 38.3709C80.4576 38.5083 80.7323 38.6027 80.9555 38.6542C81.1959 38.7058 81.3161 38.7401 81.3161 38.7573C81.3161 38.8774 81.1272 39.0148 80.7495 39.1693C80.0456 39.4269 79.3073 39.5556 78.5346 39.5556C77.7792 39.5556 77.0409 39.2809 76.3198 38.7315C75.3411 37.9761 74.8518 36.9716 74.8518 35.7183C74.8518 34.9457 75.0493 34.1816 75.4442 33.4262C76.1481 32.0869 77.7964 30.2498 80.3889 27.9148C79.7537 27.2795 79.436 26.6013 79.436 25.8802C79.436 25.1591 79.7022 24.5496 80.2344 24.0517C80.7838 23.5537 81.4277 23.3048 82.166 23.3048C82.8356 23.3048 83.4193 23.5709 83.9173 24.1032C84.2435 24.4637 84.4066 24.9187 84.4066 25.4681C84.4066 26.0175 84.2263 26.6356 83.8658 27.3224C85.7029 28.1466 86.9477 28.7904 87.6001 29.254ZM82.0115 26.3438C82.4235 25.9145 82.6296 25.6055 82.6296 25.4166C82.6296 24.9874 82.4407 24.7556 82.063 24.7213C81.6337 24.7213 81.4191 24.9616 81.4191 25.4424C81.4191 25.7343 81.6166 26.0347 82.0115 26.3438Z" fill="black"/>
<path d="M70.7561 18.8236C70.7561 18.2741 70.9535 17.7934 71.3484 17.3813C71.7605 16.9693 72.267 16.7632 72.8679 16.7632C73.4688 16.7632 73.9839 16.9521 74.4131 17.3298C74.8596 17.7076 75.0828 18.2741 75.0828 19.0296C75.0828 19.7679 74.705 20.6349 73.9496 21.6308C73.1941 22.6094 72.4558 23.3906 71.7347 23.9744C71.7004 23.9916 71.6317 24.0001 71.5287 24.0001C71.4257 24.0001 71.2196 23.9486 70.9106 23.8456C70.6015 23.7426 70.4127 23.6568 70.344 23.5881C71.151 22.6609 71.8549 21.7681 72.4558 20.9097C71.9751 20.8238 71.5716 20.592 71.2454 20.2143C70.9192 19.8194 70.7561 19.3558 70.7561 18.8236Z" fill="black"/>
<path d="M61.4901 1.12234C61.6853 0.862087 62.3034 0.6181 63.3444 0.39038C64.418 0.130127 65.4265 0 66.3699 0C67.3133 0 68.094 0.130127 68.7121 0.39038L63.93 37.1348H57.2936L59.1967 20.6413L58.5623 20.8365C55.5694 21.7148 52.853 22.5769 50.4132 23.4227L49.73 28.7904C48.9492 34.5485 46.2491 37.4275 41.6296 37.4275C39.9705 37.4275 38.6855 36.9396 37.7746 35.9636C36.8638 34.9551 36.4083 33.6701 36.4083 32.1086C36.4083 28.6278 38.8645 25.4885 43.7767 22.6908L46.2654 1.51272C46.8835 1.08981 47.6968 0.73196 48.7052 0.439176C49.7137 0.146392 50.6897 0 51.6331 0C52.5765 0 53.1946 0.0162665 53.4874 0.0487977L50.9499 19.4701C52.9343 18.7544 55.4393 17.9899 58.4647 17.1767L59.6358 16.8839L61.4901 1.12234ZM39.8241 31.3767C39.8241 32.4177 40.2958 32.9382 41.2393 32.9382C41.7598 32.9382 42.1013 32.7918 42.264 32.499C42.4267 32.1737 42.5405 31.9134 42.6056 31.7183C42.7032 31.4905 42.7845 31.1977 42.8496 30.8399C42.9146 30.4821 42.9634 30.173 42.996 29.9128C43.0285 29.62 43.061 29.2459 43.0936 28.7904C43.1261 28.335 43.1586 27.9771 43.1912 27.7169L43.2887 26.9849C40.979 28.579 39.8241 30.0429 39.8241 31.3767Z" fill="black"/>
<path d="M37.3043 26.6433L38.8659 29.0344C38.3779 30.7911 37.711 32.2713 36.8652 33.475C36.0194 34.6786 35.1247 35.5407 34.1813 36.0612C32.5222 36.9721 30.9444 37.4275 29.448 37.4275C26.8455 37.4275 24.9098 36.6793 23.6411 35.1829C22.4049 33.6539 21.7543 31.6207 21.6892 29.0832C21.5916 24.9842 21.3476 22.4305 20.9572 21.422C20.5669 20.4135 19.6723 19.8442 18.2734 19.7141L18.615 16.0543C19.2005 15.9567 19.656 15.8266 19.9813 15.6639C20.3066 15.5013 20.7295 15.176 21.25 14.688C22.3561 13.712 23.1694 11.4186 23.6899 7.80757C24.1128 5.07492 24.9749 3.0905 26.2762 1.8543C27.6099 0.6181 29.0413 0 30.5703 0C32.0993 0 33.4494 0.455442 34.6205 1.36633C35.7916 2.24468 36.3772 3.67607 36.3772 5.66049C36.3772 8.29554 35.4175 10.5728 33.4982 12.4921C31.6113 14.4115 28.9763 16.1519 25.593 17.7134C26.7641 18.2665 27.6262 19.1936 28.1793 20.4949C28.7323 21.7961 29.0413 23.1625 29.1064 24.5938C29.1715 26.0252 29.2203 27.4078 29.2528 28.7416C29.3829 31.8646 30.3101 33.4262 32.0342 33.4262C34.0512 33.4262 35.8079 31.1652 37.3043 26.6433ZM6.90362 37.4275C5.17945 37.4275 3.79686 36.907 2.75585 35.866C1.71484 34.825 1.19434 33.4912 1.19434 31.8646C1.19434 28.0585 4.07338 24.789 9.83146 22.0564C10.0592 20.137 10.3845 17.4206 10.8074 13.9072C11.6207 6.68523 12.1087 2.48866 12.2713 1.31753C13.6051 0.471708 14.9877 0.0487977 16.4191 0.0487977C17.883 0.0487977 18.9891 0.130126 19.7373 0.292783L16.1263 27.8633C15.1504 34.2395 12.0761 37.4275 6.90362 37.4275ZM32.9614 6.78283C32.9614 6.29485 32.815 5.92074 32.5222 5.66049C32.262 5.40024 32.0017 5.27011 31.7415 5.27011C31.4812 5.27011 31.2697 5.30264 31.1071 5.36771C30.977 5.43277 30.8468 5.54663 30.7167 5.70929C30.6191 5.83941 30.5378 5.9858 30.4727 6.14846C30.4077 6.27859 30.3263 6.49004 30.2287 6.78283C30.1637 7.07561 30.0986 7.33586 30.0335 7.56359C30.001 7.75877 29.936 8.05156 29.8384 8.44194C29.7408 8.83231 29.6106 9.36909 29.448 10.0522C29.2853 10.7029 29.0901 11.3698 28.8624 12.0529C31.5951 10.2962 32.9614 8.53953 32.9614 6.78283ZM4.80534 31.2303C4.80534 32.4014 5.35837 32.987 6.46445 32.987C6.91989 32.987 7.39159 32.6942 7.87957 32.1086C8.40007 31.4905 8.75792 30.5309 8.95311 29.2296L9.34349 26.2042C6.31805 27.9609 4.80534 29.6362 4.80534 31.2303Z" fill="black"/>
<path d="M54.3852 55C53.084 55 51.9454 54.7235 50.9694 54.1704C50.0098 53.6174 49.2697 52.8448 48.7492 51.8526C48.2449 50.8441 47.9928 49.7055 47.9928 48.4368C47.9928 47.168 48.2449 46.0376 48.7492 45.0453C49.2697 44.0369 50.0098 43.2561 50.9694 42.7031C51.9454 42.15 53.084 41.8735 54.3852 41.8735C55.654 41.8735 56.7438 42.1744 57.6547 42.7763C58.5818 43.3618 59.2731 44.1995 59.7286 45.2893C60.184 46.3791 60.3954 47.6479 60.3629 49.0955C60.3466 49.307 60.2328 49.4127 60.0213 49.4127H51.3598C51.5062 50.2911 51.8396 50.9742 52.3602 51.4622C52.8969 51.9502 53.5801 52.1941 54.4096 52.1941C55.6784 52.1941 56.6055 51.7143 57.1911 50.7546C57.2724 50.6082 57.4107 50.5594 57.6059 50.6082L59.7773 51.3646C59.9888 51.4459 60.0457 51.5842 59.9481 51.7794C59.4114 52.8529 58.655 53.6581 57.6791 54.1948C56.7031 54.7316 55.6052 55 54.3852 55ZM54.3608 44.6794C53.6126 44.6794 52.9783 44.8908 52.4577 45.3137C51.9535 45.7204 51.6038 46.2978 51.4086 47.046H56.9715C56.8251 46.2978 56.5242 45.7204 56.0688 45.3137C55.6133 44.8908 55.044 44.6794 54.3608 44.6794Z" fill="black"/>
<path d="M39.13 54.756C38.9186 54.756 38.8129 54.6503 38.8129 54.4388V42.4347C38.8129 42.2232 38.9186 42.1175 39.13 42.1175H41.4235C41.6512 42.1175 41.7651 42.2232 41.7651 42.4347L41.8383 44.0206C42.2612 43.3537 42.8142 42.8413 43.4974 42.4835C44.1806 42.1256 44.9125 41.9467 45.6933 41.9467C46.0186 41.9467 46.3033 41.9711 46.5472 42.0199C46.7262 42.0687 46.8156 42.1826 46.8156 42.3615V44.8746C46.8156 45.0535 46.7262 45.1429 46.5472 45.1429C46.3846 45.1429 46.1813 45.1267 45.9373 45.0941C45.7096 45.0616 45.4981 45.0453 45.3029 45.0453C44.7173 45.0453 44.1724 45.1755 43.6682 45.4357C43.164 45.6797 42.7573 46.0457 42.4483 46.5337C42.1392 47.0216 41.9847 47.5828 41.9847 48.2172V54.4388C41.9847 54.6503 41.879 54.756 41.6675 54.756H39.13Z" fill="black"/>
<path d="M29.5408 55C28.207 55 27.0359 54.7235 26.0274 54.1704C25.0189 53.6011 24.2382 52.8204 23.6851 51.8282C23.1321 50.836 22.8556 49.7055 22.8556 48.4368C22.8556 47.168 23.1321 46.0376 23.6851 45.0453C24.2382 44.0531 25.0189 43.2805 26.0274 42.7275C27.0359 42.1582 28.207 41.8735 29.5408 41.8735C30.8746 41.8735 32.0458 42.1582 33.0542 42.7275C34.0627 43.2805 34.8435 44.0531 35.3965 45.0453C35.9495 46.0376 36.2261 47.168 36.2261 48.4368C36.2261 49.7055 35.9495 50.836 35.3965 51.8282C34.8435 52.8204 34.0627 53.6011 33.0542 54.1704C32.0458 54.7235 30.8746 55 29.5408 55ZM29.5408 52.121C30.5493 52.121 31.3707 51.7794 32.0051 51.0962C32.6395 50.413 32.9566 49.5266 32.9566 48.4368C32.9566 47.347 32.6395 46.4605 32.0051 45.7773C31.3707 45.0941 30.5493 44.7526 29.5408 44.7526C28.5323 44.7526 27.7109 45.0941 27.0766 45.7773C26.4422 46.4605 26.125 47.347 26.125 48.4368C26.125 49.5266 26.4422 50.413 27.0766 51.0962C27.7109 51.7794 28.5323 52.121 29.5408 52.121Z" fill="black"/>
<path d="M18.3182 55C16.9356 55 15.8783 54.569 15.1464 53.7069C14.4307 52.8448 14.0728 51.5679 14.0728 49.8763V44.9478H12.2185C12.0071 44.9478 11.9014 44.842 11.9014 44.6306V42.4347C11.9014 42.2232 12.0071 42.1175 12.2185 42.1175H14.0728V38.7261C14.0728 38.5146 14.1786 38.4089 14.39 38.4089H16.9275C17.1389 38.4089 17.2447 38.5146 17.2447 38.7261V42.1175H20.2457C20.4572 42.1175 20.5629 42.2232 20.5629 42.4347V44.6306C20.5629 44.842 20.4572 44.9478 20.2457 44.9478H17.2447V50.0715C17.2447 50.7546 17.3585 51.267 17.5863 51.6086C17.814 51.9502 18.1718 52.121 18.6598 52.121C19.0664 52.121 19.3836 51.9176 19.6113 51.511C19.7252 51.3158 19.8716 51.267 20.0505 51.3646L21.9536 52.2186C22.0675 52.2673 22.1244 52.3568 22.1244 52.4869C22.1244 52.552 22.1 52.6333 22.0512 52.7309C21.6283 53.5117 21.0915 54.0891 20.4409 54.4632C19.7903 54.8211 19.0827 55 18.3182 55Z" fill="black"/>
<path d="M5.5141 55C4.13151 55 2.9685 54.7153 2.02509 54.146C1.09794 53.5605 0.431043 52.7228 0.0243987 51.633C0.00813289 51.6004 0 51.5598 0 51.511C0 51.3809 0.0813288 51.2914 0.243987 51.2426L2.46426 50.6326L2.56186 50.6082C2.70825 50.6082 2.80585 50.6814 2.85464 50.8278C3.13116 51.3158 3.48087 51.6655 3.90378 51.877C4.32669 52.0884 4.8228 52.1941 5.3921 52.1941C6.6283 52.1941 7.2464 51.8851 7.2464 51.267C7.2464 51.0067 7.10814 50.7872 6.83162 50.6082C6.55511 50.4293 6.06713 50.2423 5.3677 50.0471L4.75774 49.8763C3.29382 49.4696 2.22841 48.9085 1.56151 48.1928C0.894617 47.4608 0.561169 46.5906 0.561169 45.5821C0.561169 44.8664 0.764491 44.2321 1.17114 43.679C1.57778 43.1097 2.13895 42.6705 2.85464 42.3615C3.5866 42.0362 4.42429 41.8735 5.3677 41.8735C6.6039 41.8735 7.63678 42.1419 8.46633 42.6787C9.31215 43.1992 9.93025 43.9881 10.3206 45.0453C10.3369 45.0779 10.345 45.1267 10.345 45.1917C10.345 45.3219 10.2718 45.4032 10.1254 45.4357L7.90516 46.1433C7.87263 46.1595 7.82384 46.1677 7.75877 46.1677C7.66118 46.1677 7.57172 46.1026 7.49039 45.9725C7.00241 45.1104 6.27859 44.6794 5.31891 44.6794C4.86347 44.6794 4.49749 44.7526 4.22097 44.899C3.96071 45.0453 3.83059 45.2731 3.83059 45.5821C3.83059 45.8749 3.97698 46.1189 4.26976 46.3141C4.57881 46.493 5.08305 46.6719 5.78248 46.8508L6.36805 46.9972C7.88077 47.3713 8.94617 47.8919 9.56427 48.5588C10.1986 49.2256 10.5158 50.104 10.5158 51.1938C10.5158 52.3324 10.0441 53.2514 9.1007 53.9509C8.17355 54.6503 6.97801 55 5.5141 55Z" fill="black"/>
</svg>
